<?xml version="1.0" encoding="UTF-8" standalone="no"?>
<!-- Created with Inkscape (http://www.inkscape.org/) -->

<svg
   width="49.033447mm"
   height="10.733353mm"
   viewBox="0 0 49.033448 10.733353"
   version="1.1"
   id="svg62556"
   inkscape:version="1.2.1 (1:1.2.1+202210291243+9c6d41e410)"
   sodipodi:docname="index_playground_reforged.svg"
   inkscape:export-filename="/home/ironchip/Documents/index.png"
   inkscape:export-xdpi="90.004578"
   inkscape:export-ydpi="90.004578"
   xml:space="preserve"
   xmlns:inkscape="http://www.inkscape.org/namespaces/inkscape"
   xmlns:sodipodi="http://sodipodi.sourceforge.net/DTD/sodipodi-0.dtd"
   xmlns="http://www.w3.org/2000/svg"
   xmlns:svg="http://www.w3.org/2000/svg"
   xmlns:rdf="http://www.w3.org/1999/02/22-rdf-syntax-ns#"
   xmlns:cc="http://creativecommons.org/ns#"
   xmlns:dc="http://purl.org/dc/elements/1.1/"><defs
     id="defs62550" /><sodipodi:namedview
     id="base"
     pagecolor="#ffffff"
     bordercolor="#666666"
     borderopacity="1.0"
     inkscape:pageopacity="0.0"
     inkscape:pageshadow="2"
     inkscape:zoom="0.24750603"
     inkscape:cx="7719.0039"
     inkscape:cy="878.76648"
     inkscape:document-units="mm"
     inkscape:current-layer="layer1"
     showgrid="false"
     fit-margin-top="0"
     fit-margin-left="0"
     fit-margin-right="0"
     fit-margin-bottom="0"
     inkscape:window-width="1846"
     inkscape:window-height="1016"
     inkscape:window-x="74"
     inkscape:window-y="27"
     inkscape:window-maximized="1"
     inkscape:snap-center="true"
     inkscape:showpageshadow="2"
     inkscape:pagecheckerboard="0"
     inkscape:deskcolor="#d1d1d1"
     inkscape:lockguides="true" /><metadata
     id="metadata62553"><rdf:RDF><cc:Work
         rdf:about=""><dc:format>image/svg+xml</dc:format><dc:type
           rdf:resource="http://purl.org/dc/dcmitype/StillImage" /></cc:Work></rdf:RDF></metadata><g
     inkscape:label="Layer 1"
     inkscape:groupmode="layer"
     id="layer1"
     transform="translate(-7026.0523,-593.44245)"><g
       transform="translate(6311.6066,878.05064)"
       id="g4091-4-6-9-9-7-4"><g
         transform="matrix(0.26458333,0,0,0.26458333,710.2897,-288.66558)"
         id="g3449-5-1-6-3-9-1"><g
           id="g640-7-8-2-7-9-2-1-8"><path
             style="fill:#ffffff"
             inkscape:connector-curvature="0"
             d="m 59.034,26.385 c -0.64,0 -1.162,-0.521 -1.162,-1.162 0,-0.641 0.522,-1.161 1.162,-1.161 0.64,0 1.162,0.521 1.162,1.161 0,0.64 -0.522,1.162 -1.162,1.162 m 1.287,1.166 0.079,-0.047 c 0.804,-0.483 1.304,-1.356 1.304,-2.281 0,-1.472 -1.198,-2.67 -2.67,-2.67 -1.472,0 -2.67,1.198 -2.67,2.67 0,1.343 1.012,2.478 2.356,2.639 l 0.127,0.012 0.022,0.08 c 0.56,1.964 0.893,4.209 0.893,6.005 0,4.854 -1.885,9.608 -5.31,13.389 -3.421,3.777 -8.055,6.223 -13.045,6.887 l -0.138,0.018 V 43.616 h -1.508 v 12.285 l 0.981,-0.079 c 5.41,-0.499 10.504,-2.955 14.343,-6.914 3.987,-4.119 6.183,-9.428 6.183,-14.948 0,-1.887 -0.346,-4.249 -0.924,-6.318 z"
             id="path630-9-4-1-0-8-7-3-1" /><polygon
             style="fill:#ffffff"
             points="48.464,32.671 48.464,26.919 38.683,16.814 28.947,26.92 28.947,32.671 32.088,34.242 32.054,35.851 33.561,35.881 33.616,33.32 30.454,31.739 30.454,27.527 30.487,27.492 38.685,18.985 46.956,27.529 46.956,31.739 43.795,33.32 43.85,35.881 45.358,35.851 45.324,34.242 "
             id="polygon632-6-6-3-6-7-1-5-3" /><path
             style="fill:#ffffff"
             inkscape:connector-curvature="0"
             d="m 45.922,16.844 c 0.641,0 1.161,0.521 1.161,1.161 0,0.081 -0.009,0.164 -0.027,0.248 -0.048,0.221 -0.16,0.421 -0.322,0.579 -0.218,0.216 -0.507,0.334 -0.812,0.334 -0.641,0 -1.163,-0.521 -1.163,-1.162 0,-0.638 0.522,-1.16 1.163,-1.16 M 42.83,39.812 c 0,-0.64 0.522,-1.161 1.162,-1.161 0.64,0 1.163,0.521 1.163,1.161 0,0.641 -0.523,1.162 -1.163,1.162 -0.64,0 -1.162,-0.521 -1.162,-1.162 m 3.092,-19.136 c 0.587,0 1.15,-0.198 1.631,-0.572 l 0.095,-0.074 0.072,0.072 c 4.65,3.047 7.426,8.185 7.429,13.746 0,6.696 -4.011,12.667 -10.22,15.214 l -0.167,0.069 v -6.772 l 0.082,-0.027 c 1.087,-0.375 1.819,-1.387 1.819,-2.52 0,-1.472 -1.197,-2.67 -2.67,-2.67 -1.472,0 -2.669,1.198 -2.669,2.67 0,1.147 0.739,2.163 1.84,2.525 l 0.082,0.028 0.008,8.861 c 0.732,-0.159 3.685,-0.9 6.634,-3.058 1.965,-1.438 3.53,-3.214 4.653,-5.277 1.403,-2.581 2.116,-5.624 2.116,-9.044 0,-5.938 -2.936,-11.482 -7.853,-14.833 l -0.069,-0.047 10e-4,-0.005 -0.269,-0.176 0.023,-0.087 c 0.07,-0.257 0.103,-0.478 0.103,-0.694 0,-1.472 -1.197,-2.67 -2.669,-2.67 -1.473,0 -2.67,1.198 -2.67,2.67 -0.002,1.474 1.196,2.671 2.668,2.671"
             id="path634-0-6-09-0-2-9-6-7" /><path
             style="fill:#ffffff"
             inkscape:connector-curvature="0"
             d="m 17.215,25.223 c 0,-0.64 0.521,-1.161 1.162,-1.161 0.642,0 1.162,0.521 1.162,1.161 0,0.641 -0.521,1.161 -1.162,1.161 -0.641,0 -1.162,-0.52 -1.162,-1.161 m 5.746,22.13 c -3.426,-3.781 -5.312,-8.539 -5.312,-13.394 0,-1.795 0.333,-4.04 0.891,-6.004 l 0.023,-0.08 0.131,-0.012 c 1.34,-0.162 2.352,-1.296 2.352,-2.639 0,-1.472 -1.199,-2.67 -2.67,-2.67 -1.471,0 -2.668,1.198 -2.668,2.67 0,0.923 0.5,1.797 1.302,2.281 l 0.08,0.048 -0.026,0.089 c -0.578,2.069 -0.924,4.431 -0.924,6.317 0,5.522 2.197,10.831 6.186,14.948 3.837,3.961 8.932,6.417 14.345,6.916 l 0.979,0.079 V 43.617 H 36.142 V 54.253 L 36.006,54.235 C 31.017,53.575 26.385,51.13 22.961,47.353"
             id="path636-4-7-9-4-8-7-6-6" /><path
             style="fill:#ffffff"
             inkscape:connector-curvature="0"
             d="m 31.489,16.844 c 0.641,0 1.161,0.521 1.161,1.162 0,0.64 -0.52,1.161 -1.161,1.161 -0.306,0 -0.593,-0.119 -0.813,-0.333 -0.163,-0.161 -0.274,-0.361 -0.321,-0.581 -0.019,-0.088 -0.027,-0.169 -0.027,-0.247 0,-0.64 0.52,-1.162 1.161,-1.162 m 0.768,22.968 c 0,-0.641 0.521,-1.161 1.162,-1.161 0.642,0 1.162,0.521 1.162,1.161 0,0.64 -0.521,1.162 -1.162,1.162 -0.641,0 -1.162,-0.521 -1.162,-1.162 m -9.385,2.872 c 1.123,2.043 2.688,3.827 4.654,5.301 2.945,2.209 5.896,3.051 6.631,3.236 v -8.853 l 0.083,-0.027 c 1.106,-0.367 1.848,-1.382 1.848,-2.529 0,-1.472 -1.197,-2.67 -2.669,-2.67 -1.471,0 -2.67,1.198 -2.67,2.67 0,1.133 0.725,2.143 1.805,2.515 l 0.082,0.027 0.014,6.777 -0.167,-0.069 c -6.209,-2.545 -10.22,-8.517 -10.22,-15.214 10e-4,-5.563 2.781,-10.704 7.436,-13.753 l 0.069,-0.045 0.086,0.051 c 0.485,0.377 1.047,0.575 1.635,0.575 1.472,0 2.67,-1.197 2.67,-2.669 0,-1.473 -1.199,-2.671 -2.67,-2.671 -1.473,0 -2.67,1.198 -2.67,2.671 0,0.213 0.031,0.432 0.102,0.69 l 0.021,0.078 -0.063,0.057 -0.266,0.18 c -4.922,3.354 -7.857,8.898 -7.857,14.837 0.001,3.307 0.711,6.28 2.116,8.835"
             id="path638-1-2-1-1-2-0-1-3" /></g><g
           id="g658-0-7-3-3-9-6-9-9"><path
             style="fill:#ffffff"
             inkscape:connector-curvature="0"
             d="m 152.677,40.977 c -0.219,-0.214 -0.569,-0.211 -0.781,0.008 -1.299,1.316 -2.916,1.957 -4.947,1.957 -1.327,0 -2.549,-0.3 -3.63,-0.893 -1.076,-0.588 -1.93,-1.405 -2.538,-2.426 -0.606,-1.02 -0.915,-2.183 -0.915,-3.457 0,-1.273 0.308,-2.438 0.915,-3.458 0.608,-1.021 1.463,-1.837 2.538,-2.426 1.083,-0.591 2.303,-0.893 3.63,-0.893 2.016,0 3.636,0.635 4.951,1.939 0.213,0.211 0.561,0.213 0.777,0.001 l 1.212,-1.188 c 0.213,-0.211 0.221,-0.554 0.016,-0.774 -0.846,-0.898 -1.887,-1.592 -3.094,-2.058 -1.194,-0.461 -2.51,-0.695 -3.914,-0.695 -1.871,0 -3.591,0.414 -5.112,1.228 -1.526,0.82 -2.74,1.973 -3.604,3.426 -0.865,1.454 -1.305,3.102 -1.305,4.896 0,1.794 0.44,3.441 1.305,4.896 0.864,1.454 2.073,2.606 3.59,3.425 1.512,0.816 3.227,1.229 5.103,1.229 1.404,0 2.726,-0.237 3.927,-0.707 1.215,-0.474 2.26,-1.17 3.104,-2.069 0.206,-0.22 0.198,-0.565 -0.016,-0.775 z"
             id="path642-4-4-4-0-9-2-0-2" /><path
             style="fill:#ffffff"
             inkscape:connector-curvature="0"
             d="m 172.669,26.767 h -1.883 c -0.306,0 -0.553,0.247 -0.553,0.554 v 7.331 h -10.192 v -7.331 c 0,-0.307 -0.249,-0.554 -0.553,-0.554 h -1.91 c -0.306,0 -0.555,0.247 -0.555,0.554 V 45.01 c 0,0.306 0.249,0.553 0.555,0.553 h 1.91 c 0.304,0 0.553,-0.248 0.553,-0.553 v -7.608 h 10.192 v 7.608 c 0,0.306 0.248,0.553 0.553,0.553 h 1.883 c 0.305,0 0.554,-0.248 0.554,-0.553 V 27.321 c 0,-0.307 -0.249,-0.554 -0.554,-0.554"
             id="path644-8-1-5-2-6-6-3-2" /><path
             style="fill:#ffffff"
             inkscape:connector-curvature="0"
             d="m 198.017,33.385 c 0,1.235 -0.398,2.156 -1.215,2.818 -0.839,0.681 -2.102,1.026 -3.752,1.026 h -4.245 v -7.737 h 4.245 c 1.65,0 2.913,0.345 3.752,1.026 0.817,0.662 1.215,1.601 1.215,2.867 m 0.854,-4.874 c -1.403,-1.156 -3.344,-1.744 -5.771,-1.744 h -6.759 c -0.306,0 -0.553,0.247 -0.553,0.554 v 17.69 c 0,0.306 0.247,0.552 0.553,0.552 h 1.91 c 0.306,0 0.553,-0.247 0.553,-0.552 v -5.032 h 4.295 c 2.427,0 4.365,-0.583 5.768,-1.73 1.437,-1.174 2.164,-2.811 2.164,-4.863 0.001,-2.052 -0.727,-3.69 -2.16,-4.875"
             id="path646-7-0-8-9-0-7-9-7" /><path
             style="fill:#ffffff"
             inkscape:connector-curvature="0"
             d="m 180.459,26.767 h -1.909 c -0.304,0 -0.553,0.247 -0.553,0.554 V 45.01 c 0,0.306 0.249,0.553 0.553,0.553 h 1.909 c 0.306,0 0.554,-0.248 0.554,-0.553 V 27.321 c 0.001,-0.307 -0.248,-0.554 -0.554,-0.554"
             id="path648-0-0-5-6-2-6-5-7" /><path
             style="fill:#ffffff"
             inkscape:connector-curvature="0"
             d="m 132.938,26.767 h -1.881 c -0.306,0 -0.553,0.248 -0.553,0.554 V 40.114 L 119.85,26.972 c -0.104,-0.13 -0.262,-0.205 -0.428,-0.205 h -1.574 c -0.305,0 -0.554,0.248 -0.554,0.554 V 45.01 c 0,0.306 0.25,0.553 0.554,0.553 h 1.909 c 0.306,0 0.554,-0.248 0.554,-0.553 V 32.219 l 10.627,13.139 c 0.104,0.131 0.26,0.206 0.428,0.206 h 1.573 c 0.306,0 0.554,-0.248 0.554,-0.553 v -17.69 c -0.001,-0.306 -0.249,-0.554 -0.555,-0.554"
             id="path650-8-6-7-0-7-7-0-8" /><path
             style="fill:#ffffff"
             inkscape:connector-curvature="0"
             d="m 71.668,26.767 h -1.91 c -0.305,0 -0.552,0.247 -0.552,0.554 V 45.01 c 0,0.306 0.247,0.553 0.552,0.553 h 1.91 c 0.306,0 0.553,-0.248 0.553,-0.553 V 27.321 c 10e-4,-0.307 -0.247,-0.554 -0.553,-0.554"
             id="path652-6-4-3-9-6-4-0-2" /><path
             style="fill:#ffffff"
             inkscape:connector-curvature="0"
             d="m 89.226,33.385 c 0,1.235 -0.399,2.161 -1.216,2.833 -0.841,0.687 -2.103,1.036 -3.751,1.036 h -4.246 v -7.763 h 4.246 c 1.651,0 2.914,0.345 3.752,1.026 0.818,0.663 1.215,1.602 1.215,2.868 m -0.788,5.827 c 1.097,-0.464 1.975,-1.132 2.622,-1.994 0.785,-1.046 1.182,-2.336 1.182,-3.833 0,-2.051 -0.726,-3.69 -2.163,-4.874 -1.401,-1.156 -3.344,-1.744 -5.767,-1.744 h -6.76 c -0.307,0 -0.554,0.247 -0.554,0.554 v 17.69 c 0,0.306 0.247,0.552 0.554,0.552 h 1.908 c 0.307,0 0.553,-0.247 0.553,-0.552 v -5.059 h 4.299 c 0.403,0 0.8,-0.015 1.182,-0.047 l 3.941,5.431 c 0.103,0.143 0.27,0.227 0.448,0.227 h 2.089 c 0.209,0 0.398,-0.117 0.493,-0.301 0.094,-0.186 0.077,-0.409 -0.045,-0.576 z"
             id="path654-2-4-3-3-1-3-5-1" /><path
             style="fill:#ffffff"
             inkscape:connector-curvature="0"
             d="m 111.101,36.166 c 0,1.275 -0.303,2.444 -0.903,3.476 -0.6,1.026 -1.44,1.841 -2.496,2.419 -1.065,0.585 -2.28,0.881 -3.605,0.881 -1.329,0 -2.545,-0.296 -3.617,-0.881 -1.068,-0.58 -1.917,-1.395 -2.523,-2.423 -0.609,-1.029 -0.916,-2.196 -0.916,-3.472 0,-1.274 0.307,-2.442 0.916,-3.471 0.606,-1.028 1.455,-1.843 2.523,-2.423 1.073,-0.584 2.289,-0.881 3.617,-0.881 1.326,0 2.54,0.297 3.605,0.879 1.056,0.58 1.896,1.396 2.495,2.421 0.6,1.031 0.904,2.2 0.904,3.475 m -1.905,-8.321 c -1.512,-0.816 -3.227,-1.229 -5.1,-1.229 -1.873,0 -3.595,0.417 -5.125,1.241 -1.536,0.828 -2.753,1.98 -3.618,3.424 -0.865,1.445 -1.305,3.087 -1.305,4.884 0,1.796 0.439,3.439 1.304,4.883 0.868,1.446 2.083,2.598 3.619,3.424 1.526,0.824 3.25,1.241 5.125,1.241 1.875,0 3.59,-0.413 5.1,-1.227 1.52,-0.821 2.731,-1.973 3.604,-3.425 0.875,-1.454 1.318,-3.103 1.318,-4.896 0,-1.795 -0.444,-3.442 -1.318,-4.898 -0.873,-1.452 -2.085,-2.603 -3.604,-3.422"
             id="path656-4-3-8-5-3-1-1-0" /></g></g></g></g></svg>
